inDegrees=yes
name=ik_coleta2_trike_5hz_mov
DataType=double
version=3
OpenSimVersion=4.4-2022-07-23-0e9fedc
endheader
time	hip_flexion_r	knee_angle_r	hip_flexion_l	knee_angle_l	gearToGround_coord_0
35.02445006370544	97.13994391778482	-102.4014877855158	99.4917386744884	-72.57677447995205	-1288.188484056892
35.03945207595825	97.43012753695508	-102.7366699461865	99.18425492283099	-72.18450187528387	-1288.988375797404
35.04536700248718	97.73928601678674	-103.088620566581	98.83769224086335	-71.76857886232536	-1289.837044021787
35.05137085914612	98.05590699508453	-103.4437163888212	98.48859707345466	-71.47249384843722	-1290.721928044805
35.05542397499084	98.43597292337618	-103.8632515715502	98.04467269894131	-70.85804581355261	-1291.768286289066
35.06136107444763	98.87216413456075	-104.3355974160286	97.62724153911545	-70.48301601838695	-1292.956159777797
35.06837105751038	99.39518982370608	-104.889331380077	97.07306321995425	-69.88286320075647	-1294.374649058747
35.07537913322449	100.0198485816522	-105.5328999059541	96.39841869869861	-69.2266905383056	-1296.051210042844
35.08537483215332	100.7835237332501	-106.2938561365016	95.48974434632434	-68.07814923721416	-1298.088639136159
35.09138298034668	101.7030039692585	-107.1730889559752	94.55923331357974	-67.32742798496766	-1300.517779289312
35.09536099433899	102.8129220175486	-108.1816943427606	93.49886498369423	-66.06405631546092	-1303.420803716745
35.09937191009521	104.1108535851198	-109.2893342795334	92.33169469412215	-65.12174085042541	-1306.7894363162
35.10845518112183	105.5739917708928	-110.4465369526448	90.6922913324337	-63.35351058381589	-1310.56910849748
35.12140512466431	107.1408805842691	-111.5789683580728	89.54906165397523	-62.57024707070233	-1314.613485910264
35.12538695335388	108.7304228426185	-112.6140816421112	88.19969024763309	-61.3080201369021	-1318.743412087158
35.13136887550354	110.2592804957491	-113.4988235658939	86.94016613692246	-60.43638429373229	-1322.770164096463
35.1404139995575	111.6646091074127	-114.2118052876593	85.52666449995125	-59.11001956003101	-1326.549825876951
35.14636611938477	112.9156904357953	-114.7597095174661	84.85675856963057	-58.99229655033022	-1330.006483195335
35.15037512779236	114.0171857850164	-115.1699963818095	83.77019274257626	-58.05271311104303	-1333.146093008494
35.15442085266113	114.9839502342436	-115.4680908639597	83.28225768854	-58.18482826027557	-1336.001381948203
35.16040992736816	115.828712343516	-115.6758010795516	82.52185083087912	-57.7520303291474	-1338.591690010667
35.16836810112	116.5650315908553	-115.8119320191115	82.18978374336653	-57.80103883224251	-1340.940669201355
35.17537093162537	117.2065532054892	-115.8923288370995	81.7598189415579	-57.62120028511476	-1343.074197021345
35.18037796020508	117.9193184359426	-116.2348766693171	81.44501891449318	-57.6460342685985	-1344.798871236204
35.18942713737488	118.4259264481817	-116.2426205029231	81.04635267617888	-57.45015420430011	-1346.589988227989
35.19838404655457	118.8872005254569	-116.2225487993325	80.80309179509302	-57.56718154245063	-1348.280851077711
35.20837903022766	119.3113589779051	-116.1791900376199	80.56686741834916	-57.68943964092534	-1349.906195100352
35.21337890625	119.720459618203	-116.1086841154305	80.31522301038835	-57.75326326017463	-1351.556737117743
35.21738314628601	120.1140177730136	-116.0129478941618	80.0716002313669	-57.82835857401309	-1353.221142098669
35.22536897659302	120.5068811002677	-115.8841329221555	79.82475209920351	-57.92740129930787	-1354.984434833652
35.22936487197876	120.8942438991778	-115.7180501013447	79.57451179921891	-58.04966628941185	-1356.839349338146
35.23337316513062	121.273736885022	-115.508615204482	79.31938345107572	-58.20171540977139	-1358.802138388999
35.23741006851196	121.6385698842488	-115.2513130058043	79.05607854386318	-58.38421460917986	-1360.867416458586
35.24238085746765	121.9822933740171	-114.9415246198675	78.78558865312321	-58.61901607974295	-1363.033284950303
35.2493748664856	122.3018108273546	-114.5685729040552	78.61022252300691	-59.0207437977228	-1365.329349951014
35.25337600708008	122.5885566881281	-114.1279730751743	78.48396721549381	-59.51587936922072	-1367.747505446463
35.25739002227783	122.8372941176062	-113.6045697482578	78.3848416882096	-60.10070105311697	-1370.328542105412
35.26136803627014	123.0397343562239	-112.9762581195205	78.63244319560479	-61.26513588837623	-1373.129024712774
35.26637196540833	123.1802131076074	-112.2223295875241	78.40429767223014	-61.72349685858895	-1376.18165921038
35.27242112159729	123.2384503531114	-111.3151970985563	78.36161745071806	-62.64777637062202	-1379.533027969361
35.27638387680054	123.1896349157663	-110.2456338844726	78.72690013402035	-64.13955193109365	-1383.155883439716
35.28637504577637	123.0185711963511	-109.0441939280983	78.71663677373263	-65.33139241769273	-1386.913180645497
35.29044079780579	122.7367260537745	-107.7880660528957	79.15933838041559	-66.77280752970297	-1390.578329098498
35.296382188797	122.3838663638613	-106.5748670877614	79.37756520749477	-67.96316363412873	-1393.921360242643
35.30237102508545	122.0099246425771	-105.4839385900521	79.71739724486845	-69.20141985759616	-1396.794693259199
35.30738806724548	121.655304444527	-104.5558888226046	79.78372997103696	-70.06329901706431	-1399.157893648548
35.31137990951538	121.3473640231716	-103.807297527949	79.99963323590521	-70.79569932457811	-1401.016694737511
35.31636905670166	121.0975434083795	-103.229839521709	80.18935840739246	-71.44837165202074	-1402.424400099852
35.32140684127808	120.9048785290711	-102.7996192752597	80.33713094476892	-71.84465558228301	-1403.460357797096
35.32540416717529	120.760495986782	-102.484767978914	80.44536685063005	-72.17680344794799	-1404.211493556241
35.33137989044189	120.6518239446139	-102.2516702564482	80.56268049213722	-72.43825873552213	-1404.764004409151
35.33944582939148	120.5638653058491	-102.0653052303653	80.57562149019084	-72.67318130583799	-1405.203780615923
35.34538006782532	120.4859180631148	-101.9017703038906	80.62831648318476	-72.81025005457985	-1405.588299271009
35.34937906265259	120.4092443606945	-101.7423317731356	80.68988501268053	-72.96413315094158	-1405.961775997138
35.35337805747986	120.3274359194162	-101.5737082626337	80.74680983324258	-73.14372343310623	-1406.355120673414
35.358402967453	120.237575446708	-101.3901950608898	80.81287336562715	-73.33478714536305	-1406.781943582743
35.36737489700317	120.1375045368088	-101.1878355950957	80.89129429884339	-73.54322186245594	-1407.250681462723
35.37243580818176	120.0267623960207	-100.9662639072737	80.95868595230556	-73.79006200591542	-1407.761615612608
35.37839698791504	119.9069899289107	-100.7292533198949	81.06543938888343	-74.02379463895095	-1408.305886835772
35.38437294960022	119.7802869812038	-100.4813578949213	81.13343692115183	-74.30455897176257	-1408.872380472476
35.39143395423889	119.6511220511932	-100.2314830581404	81.23837279276027	-74.54543070723311	-1409.441041518888
35.3943920135498	119.5220418659301	-99.98448518687327	81.31816342613665	-74.81748007957776	-1410.000302218685
35.40039110183716	119.3955694326674	-99.74496911255383	81.5645660272086	-75.17303730679488	-1410.540516779617
35.40342807769775	119.2730316421309	-99.51516339143041	81.50172731534478	-75.29555747913166	-1411.056975606032
35.40743684768677	119.1519487523341	-99.29012955014257	81.58483469259465	-75.53304509641481	-1411.560555701753
35.42039799690247	119.0357822933089	-99.07611652912487	81.67400534910746	-75.75096877006479	-1412.037887282802
35.42638301849365	118.9229844909766	-98.86997883165829	81.74102919722601	-75.99387909696206	-1412.49613903963
35.43136811256409	118.812077658171	-98.66882621753055	81.83169403480397	-76.17476143216588	-1412.941888902785
35.43739581108093	118.6999812636635	-98.4670107825436	81.96337848239743	-76.40410607364414	-1413.387476023656
35.44636797904968	118.5836498028198	-98.25908980101295	82.05003441246843	-76.62305263657161	-1413.84497142448
35.45137095451355	118.462702832396	-98.04453713879445	82.14142523404651	-76.85037107096977	-1414.316569407199
35.45940709114075	118.3338462355337	-97.81766228587914	82.1761206401122	-77.05612978968215	-1414.813234437818
35.46437501907349	118.1948255012049	-97.57480053200663	82.28003142878642	-77.30761883949312	-1415.342735728468
35.47042608261108	118.0443819976293	-97.3141510016785	82.38670042060075	-77.5773279964358	-1415.909955165976
35.47637486457825	117.8782123579737	-97.02873884343731	82.49666237329346	-77.87145931123609	-1416.528514775445
35.48944187164307	117.6929148350673	-96.71340042537587	82.64029768049566	-78.19859846018144	-1417.209410892728
35.49339294433594	117.4852205666225	-96.36349006945485	82.75940440538437	-78.6153638794285	-1417.96182165812
35.50036382675171	117.2513382195004	-95.97364712723218	82.964120179299	-79.1145300624368	-1418.796713826043
35.50840902328491	116.9919104313191	-95.54617649262813	83.18525094950692	-79.42958166628829	-1419.707850788555
35.5163779258728	116.7088431401185	-95.08531147948186	83.33367804276587	-79.87072888824873	-1420.686447985036
35.52140307426453	116.4104645742114	-94.60543528508779	83.5154681079764	-80.37878165214568	-1421.699725767958
